<svg width="200" height="49" viewBox="0 0 200 49" fill="none" xmlns="http://www.w3.org/2000/svg">
<path d="M12.5404 4.60197L17.6889 23.8164V2.69165C18.0971 2.59639 18.5097 2.51249 18.9264 2.44031V23.8183L24.7171 2.20703C25.1344 2.24481 25.5483 2.29424 25.9586 2.355L20.1212 24.1404L31.7244 4.04307C32.1024 4.21312 32.4748 4.39354 32.8411 4.58396L21.1946 24.7563L37.8214 8.12943C38.1212 8.41291 38.413 8.70473 38.6964 9.00451L22.0671 25.6338L42.2419 13.9859C42.4322 14.3523 42.6126 14.7246 42.7826 15.1027L22.6902 26.703L44.4697 20.8672C44.5305 21.2775 44.5799 21.6914 44.6176 22.1087L23.0066 27.8994L44.384 27.8994C44.3118 28.316 44.2279 28.7286 44.1326 29.1369L23.0033 29.1369L42.2214 34.2864C42.024 34.6643 41.816 35.0358 41.5977 35.4004L22.6884 30.3337L38.482 39.4521C38.1831 39.7596 37.8752 40.0584 37.5588 40.348L22.0711 31.4062L33.7903 43.1255C33.4197 43.342 33.0421 43.5481 32.658 43.7432L21.1947 32.28L28.7056 45.2891C28.2943 45.4053 27.8782 45.5099 27.4576 45.6025L20.122 32.8968L23.6588 46.0964C23.3435 46.1098 23.0266 46.1165 22.708 46.1165C22.5993 46.1165 22.4907 46.1157 22.3824 46.1142L18.9263 33.2161V45.7927C18.5097 45.7206 18.0971 45.6367 17.6888 45.5414V33.2181L14.6416 44.5907C14.2529 44.4374 13.8696 44.2734 13.4922 44.0991L16.4931 32.8995L10.8598 42.6567C10.511 42.4334 10.169 42.2005 9.83401 41.9584L15.423 32.2779L7.59599 40.1049C7.29621 39.8215 7.00439 39.5297 6.72091 39.2299L14.5455 31.4054L4.8678 36.9928C4.62564 36.6579 4.39269 36.3158 4.1693 35.9671L13.9311 30.3311L2.72601 33.3335C2.55161 32.9561 2.38758 32.5728 2.2343 32.1841L13.6068 29.1369L1.28342 29.1369C1.18813 28.7286 1.1042 28.316 1.032 27.8994L13.6035 27.8994L0.710405 24.4447C0.708809 24.3355 0.708008 24.2261 0.708008 24.1165C0.708008 23.7988 0.714742 23.4827 0.728076 23.1683L13.9293 26.7055L1.22163 19.3687C1.31416 18.9481 1.41873 18.532 1.53495 18.1207L14.5494 25.6346L3.08135 14.1666C3.27645 13.7825 3.4825 13.4049 3.69908 13.0342L15.4232 24.7583L6.47777 9.26441C6.76743 8.94805 7.06622 8.64018 7.37371 8.34123L16.4938 24.1377L11.4263 5.2255C11.7909 5.00727 12.1624 4.79929 12.5404 4.60197Z" fill="white"/>
<path d="M58.5561 34.0261H63.3441V25.7101H72.8921V21.4821H63.3441V17.9261H73.5081V13.7261H58.5561V34.0261Z" fill="white"/>
<path d="M81.6458 22.0981C83.4658 22.0981 84.9219 23.2181 84.9219 26.4381C84.9219 29.6021 83.5218 30.8061 81.6458 30.8061C79.7698 30.8061 78.3699 29.6021 78.3699 26.4381C78.3699 23.2181 79.8258 22.0981 81.6458 22.0981ZM81.6458 18.5141C77.4739 18.5141 73.6658 20.9781 73.6658 26.4381C73.6658 31.8981 77.4739 34.3901 81.6458 34.3901C85.8179 34.3901 89.6259 31.8981 89.6259 26.4381C89.6259 20.9781 85.8179 18.5141 81.6458 18.5141Z" fill="white"/>
<path d="M98.4973 18.5141C93.9333 18.5141 90.7973 21.6221 90.7973 26.4101C90.7973 31.1981 93.5413 34.3901 98.4973 34.3901C101.521 34.3901 105.133 32.9621 106.169 28.4821H101.857C101.521 29.9101 100.485 30.8061 98.7773 30.8061C97.1253 30.8061 95.5013 29.7141 95.5013 26.4381C95.5013 23.2181 97.1253 22.0981 98.7773 22.0981C100.149 22.0981 101.241 22.7141 101.661 24.4781H105.973C105.077 19.9421 101.633 18.5141 98.4973 18.5141Z" fill="white"/>
<path d="M117.025 24.6181C111.173 25.0661 107.001 26.2701 107.001 29.9661C107.001 32.7101 109.353 34.3901 112.209 34.3901C114.365 34.3901 116.157 33.8021 117.277 32.2061L117.333 34.0261H121.869C121.645 33.0741 121.533 31.3101 121.533 29.6581V28.0901L121.589 24.8141C121.673 20.2501 119.209 18.4861 114.869 18.4861C110.389 18.4861 107.701 21.0061 107.477 23.8341H111.789C111.985 22.3781 112.993 21.6221 114.477 21.6221C116.157 21.6221 117.025 22.2381 117.025 24.0301V24.6181ZM117.137 27.6981C117.137 30.4701 115.737 31.2541 113.889 31.2541C112.685 31.2541 111.761 30.6101 111.761 29.6301C111.761 28.0061 113.917 27.6421 117.137 27.3341V27.6981Z" fill="white"/>
<path d="M128.58 13.7261H123.96V34.0261H128.58V13.7261Z" fill="white"/>
<path d="M131.526 13.7261V34.0261H136.314V26.9981H139.338C144.602 26.9981 148.55 25.6821 148.55 20.3341C148.55 15.0141 144.602 13.7261 139.338 13.7261H131.526ZM139.478 17.7581C141.718 17.7581 143.482 18.2061 143.482 20.3341C143.482 22.4621 141.718 22.9661 139.478 22.9661H136.314V17.7581H139.478Z" fill="white"/>
<path d="M156.666 22.0981C158.486 22.0981 159.942 23.2181 159.942 26.4381C159.942 29.6021 158.542 30.8061 156.666 30.8061C154.79 30.8061 153.39 29.6021 153.39 26.4381C153.39 23.2181 154.846 22.0981 156.666 22.0981ZM156.666 18.5141C152.494 18.5141 148.686 20.9781 148.686 26.4381C148.686 31.8981 152.494 34.3901 156.666 34.3901C160.838 34.3901 164.646 31.8981 164.646 26.4381C164.646 20.9781 160.838 18.5141 156.666 18.5141Z" fill="white"/>
<path d="M166.495 18.9621V34.0261H171.143V18.9621H166.495ZM166.495 13.7261V17.4221H171.115V13.7261H166.495Z" fill="white"/>
<path d="M178.512 18.9621H173.892V34.0261H178.512V26.2981C178.512 23.4981 179.324 22.2101 181.312 22.2101C183.552 22.2101 183.636 23.9741 183.636 26.1301V34.0261H188.256V24.9821C188.256 20.8941 187.052 18.6261 183.188 18.6261C180.808 18.6261 179.184 19.8301 178.512 20.9501V18.9621Z" fill="white"/>
<path d="M191.45 18.9621H189.07V22.2381H191.45V29.7981C191.45 33.2981 192.71 34.0261 196.434 34.0261H199.374V30.6941H198.058C196.518 30.6941 196.07 30.4141 196.07 28.9861V22.2381H199.374V18.9621H196.07V14.8461H191.45V18.9621Z" fill="white"/>
</svg>
