<svg width="172" height="52" viewBox="0 0 172 52" fill="none" xmlns="http://www.w3.org/2000/svg">
<path fill-rule="evenodd" clip-rule="evenodd" d="M22.3341 46.9788C34.4825 47.1909 44.5026 37.5145 44.7147 25.3661C44.9267 13.2177 35.2504 3.19757 23.102 2.98552C10.9535 2.77346 0.933414 12.4498 0.721364 24.5982C0.509312 36.7466 10.1856 46.7668 22.3341 46.9788ZM29.7853 13.3523C30.14 12.1716 29.0009 11.4499 27.9362 12.1807L13.0743 22.382C11.9197 23.1745 12.0709 24.7963 13.3014 24.8178L17.1668 24.8853L17.1674 24.8553L24.701 24.9868L18.5247 27.0456L15.6507 36.6121C15.296 37.7928 16.4351 38.5145 17.4998 37.7836L32.3617 27.5824C33.5163 26.7899 33.3651 25.168 32.1347 25.1465L26.2728 25.0442L29.7853 13.3523Z" fill="white"/>
<path d="M55.92 35.4724L55.9807 31.9929L58.7403 32.0411L58.9853 18.0032L56.2258 17.9551L56.2865 14.4756L67.0848 14.6641C68.3647 14.6864 69.4706 14.9258 70.4028 15.3821C71.3553 15.8188 72.0846 16.4416 72.5905 17.2506C73.1169 18.0399 73.3704 18.9844 73.3512 20.0843L73.346 20.3842C73.3292 21.3441 73.1355 22.1308 72.7647 22.7444C72.3943 23.3381 71.9561 23.8005 71.4503 24.1317C70.9648 24.4433 70.5008 24.6652 70.0584 24.7975L70.049 25.3374C70.4869 25.4651 70.9628 25.7034 71.4768 26.0525C71.9911 26.3815 72.4228 26.8591 72.772 27.4853C73.1411 28.1118 73.3169 28.925 73.2995 29.9249L73.2942 30.2248C73.274 31.3847 72.9866 32.3798 72.432 33.2102C71.8778 34.0207 71.1169 34.6375 70.1493 35.0607C69.2018 35.4842 68.0981 35.685 66.8383 35.663L55.92 35.4724ZM62.7018 31.9902L66.4212 32.0552C67.2811 32.0702 67.9747 31.8722 68.5019 31.4614C69.0492 31.0509 69.3296 30.4557 69.3432 29.6758L69.3484 29.3758C69.3621 28.596 69.1126 27.9915 68.6 27.5625C68.0874 27.1335 67.3912 26.9113 66.5113 26.8959L62.7919 26.831L62.7018 31.9902ZM62.8547 23.2316L66.5141 23.2954C67.334 23.3098 68.0076 23.1115 68.5348 22.7006C69.0821 22.2901 69.3621 21.7149 69.3751 20.975L69.3803 20.6751C69.3936 19.9152 69.1437 19.3307 68.6308 18.9217C68.1182 18.4927 67.442 18.2709 66.6021 18.2562L62.9426 18.1923L62.8547 23.2316Z" fill="white"/>
<path d="M82.1305 36.35C80.6508 36.3241 79.3262 36.001 78.1569 35.3805C76.9875 34.76 76.0728 33.8739 75.4128 32.7222C74.7528 31.5705 74.4368 30.1948 74.4647 28.595L74.4731 28.1151C74.501 26.5153 74.8649 25.1515 75.5647 24.0235C76.2645 22.8955 77.2095 22.0419 78.3998 21.4626C79.5901 20.8833 80.9251 20.6065 82.4049 20.6324C83.8847 20.6582 85.2092 20.9814 86.3786 21.6019C87.5479 22.2224 88.4626 23.1085 89.1226 24.2602C89.7826 25.4119 90.0986 26.7876 90.0707 28.3873L90.0623 28.8673C90.0344 30.467 89.6706 31.8309 88.9708 32.9588C88.271 34.0868 87.3259 34.9404 86.1356 35.5197C84.9454 36.0991 83.6103 36.3758 82.1305 36.35ZM82.1892 32.9905C83.349 33.0107 84.3153 32.6575 85.0881 31.9309C85.8613 31.1843 86.2601 30.1111 86.2845 28.7113L86.2897 28.4114C86.3142 27.0116 85.9529 25.9351 85.2059 25.1819C84.4793 24.4091 83.5261 24.0125 82.3463 23.9919C81.1864 23.9716 80.2199 24.3348 79.4468 25.0814C78.674 25.808 78.2754 26.8712 78.2509 28.271L78.2457 28.571C78.2213 29.9708 78.5824 31.0572 79.329 31.8304C80.076 32.5835 81.0294 32.9702 82.1892 32.9905Z" fill="white"/>
<path d="M91.9255 36.1009L92.292 15.1041L96.0714 15.17L95.7049 36.1669L91.9255 36.1009Z" fill="white"/>
<path d="M104.092 36.3133C103.113 36.2962 102.318 35.9822 101.708 35.3715C101.119 34.7411 100.834 33.916 100.852 32.8962L100.998 24.4975L97.2787 24.4325L97.3332 21.313L101.053 21.3779L101.133 16.7586L104.913 16.8246L104.832 21.4439L108.911 21.5151L108.857 24.6346L104.778 24.5634L104.643 32.3022C104.632 32.9022 104.907 33.207 105.467 33.2168L108.346 33.267L108.292 36.3866L104.092 36.3133Z" fill="white"/>
<path d="M116.745 36.9542C114.805 36.9203 113.223 36.4726 111.998 35.6111C110.772 34.7496 110.043 33.5367 109.811 31.9724L113.306 31.1333C113.434 31.8356 113.654 32.3895 113.967 32.7951C114.3 33.2009 114.705 33.498 115.182 33.6864C115.679 33.8551 116.217 33.9445 116.797 33.9546C117.677 33.97 118.33 33.8313 118.755 33.5387C119.18 33.2261 119.397 32.8398 119.405 32.3799C119.413 31.92 119.219 31.5665 118.823 31.3196C118.428 31.0526 117.792 30.8315 116.915 30.6562L116.077 30.4915C115.041 30.2734 114.096 29.9869 113.242 29.6319C112.388 29.257 111.707 28.755 111.198 28.126C110.689 27.497 110.443 26.6926 110.46 25.7128C110.486 24.233 111.046 23.1126 112.139 22.3516C113.233 21.5705 114.66 21.1954 116.419 21.2261C118.079 21.2551 119.452 21.6491 120.539 22.4082C121.626 23.1673 122.329 24.1497 122.648 25.3554L119.12 26.374C118.973 25.6113 118.653 25.0657 118.158 24.737C117.684 24.4086 117.087 24.2382 116.367 24.2256C115.647 24.2131 115.095 24.3334 114.71 24.5868C114.326 24.8201 114.13 25.1567 114.123 25.5967C114.114 26.0766 114.308 26.44 114.704 26.687C115.1 26.9139 115.637 27.0933 116.315 27.2252L117.152 27.3898C118.268 27.6093 119.273 27.8969 120.167 28.2526C121.081 28.5886 121.793 29.0711 122.302 29.7001C122.832 30.3094 123.087 31.134 123.069 32.1738C123.042 33.7336 122.451 34.9334 121.296 35.7734C120.162 36.5937 118.645 36.9873 116.745 36.9542Z" fill="white"/>
<path d="M124.803 36.6748L125.17 15.678L128.949 15.7439L128.811 23.6927L129.35 23.7021C129.516 23.385 129.772 23.0694 130.117 22.7554C130.463 22.4414 130.917 22.1893 131.48 21.9991C132.064 21.7892 132.796 21.692 133.676 21.7073C134.836 21.7276 135.841 22.0152 136.691 22.5701C137.562 23.1054 138.229 23.8471 138.693 24.7954C139.157 25.7236 139.378 26.8076 139.356 28.0474L139.201 36.9261L135.422 36.8601L135.571 28.2814C135.591 27.1616 135.326 26.3168 134.776 25.7471C134.245 25.1778 133.47 24.8842 132.451 24.8664C131.291 24.8462 130.384 25.2204 129.731 25.9891C129.077 26.7378 128.739 27.8021 128.715 29.1819L128.583 36.7407L124.803 36.6748Z" fill="white"/>
<path d="M141.787 36.9712L142.047 22.0935L145.826 22.1595L145.566 37.0372L141.787 36.9712ZM143.967 20.3867C143.287 20.3749 142.711 20.1448 142.239 19.6965C141.786 19.2485 141.567 18.6646 141.579 17.9447C141.592 17.2248 141.832 16.6489 142.299 16.217C142.787 15.7854 143.371 15.5756 144.051 15.5875C144.751 15.5997 145.327 15.8298 145.779 16.2777C146.231 16.7257 146.451 17.3096 146.438 18.0295C146.426 18.7494 146.186 19.3253 145.718 19.7572C145.25 20.1891 144.667 20.399 143.967 20.3867Z" fill="white"/>
<path d="M150.714 37.127L150.92 25.3688L147.14 25.3029L147.195 22.1833L150.974 22.2493L151.022 19.4897C151.04 18.4699 151.354 17.6652 151.965 17.0758C152.595 16.4667 153.401 16.1707 154.38 16.1878L158.28 16.2559L158.225 19.3754L155.646 19.3304C155.086 19.3206 154.801 19.6157 154.79 20.2156L154.754 22.3153L158.653 22.3833L158.599 25.5029L154.699 25.4348L154.494 37.193L150.714 37.127Z" fill="white"/>
<path d="M165.226 37.3803C164.246 37.3632 163.451 37.0493 162.842 36.4386C162.253 35.8082 161.967 34.9831 161.985 33.9633L162.131 25.5645L158.412 25.4996L158.466 22.3801L162.186 22.445L162.267 17.8257L166.046 17.8917L165.965 22.511L170.045 22.5822L169.99 25.7017L165.911 25.6305L165.776 33.3693C165.765 33.9692 166.04 34.2741 166.6 34.2839L169.48 34.3341L169.425 37.4536L165.226 37.3803Z" fill="white"/>
</svg>
