<svg width="183" height="49" viewBox="0 0 183 49" fill="none" xmlns="http://www.w3.org/2000/svg">
<g clip-path="url(#clip0_281_11691)">
<path d="M27.9775 4.23839L23.7567 3.10742L20.1998 16.3821L16.9886 4.39763L12.7677 5.5286L16.2372 18.4769L7.59537 9.83511L4.50551 12.925L13.9845 22.4041L2.17992 19.241L1.04895 23.4618L13.947 26.9178C13.7993 26.2809 13.7212 25.6173 13.7212 24.9354C13.7212 20.1087 17.634 16.1959 22.4607 16.1959C27.2873 16.1959 31.2001 20.1087 31.2001 24.9354C31.2001 25.6129 31.123 26.2724 30.9771 26.9056L42.6991 30.0464L43.83 25.8257L30.8806 22.3559L42.6861 19.1926L41.555 14.9718L28.6063 18.4414L37.2481 9.79963L34.1582 6.70977L24.8107 16.0573L27.9775 4.23839Z" fill="white"/>
<path d="M30.9648 26.9547C30.6029 28.4847 29.8389 29.8591 28.7906 30.9602L37.2826 39.4524L40.3725 36.3625L30.9648 26.9547Z" fill="white"/>
<path d="M28.7049 31.049C27.644 32.1326 26.3033 32.9412 24.7998 33.358L27.8898 44.8902L32.1106 43.7592L28.7049 31.049Z" fill="white"/>
<path d="M24.6421 33.4002C23.9445 33.5795 23.2134 33.6748 22.4599 33.6748C21.6527 33.6748 20.871 33.5653 20.1289 33.3604L17.036 44.9033L21.2568 46.0342L24.6421 33.4002Z" fill="white"/>
<path d="M19.9796 33.3179C18.4991 32.8805 17.1822 32.0615 16.143 30.9748L7.63005 39.4878L10.7199 42.5776L19.9796 33.3179Z" fill="white"/>
<path d="M16.0728 30.8996C15.0514 29.806 14.3073 28.45 13.9532 26.9437L2.19299 30.0948L3.32395 34.3156L16.0728 30.8996Z" fill="white"/>
</g>
<path d="M69.2281 13.0259V28.2359L59.4781 13.0259H55.5781V34.0259H59.4781V18.9359L69.2281 34.0259H73.1281V13.0259H69.2281Z" fill="white"/>
<path d="M74.8855 16.9559H78.9055V13.0259H74.8855V16.9559ZM74.9455 34.0259V19.0259H78.8455V34.0259H74.9455Z" fill="white"/>
<path d="M95.6255 26.5259C95.6255 21.3359 91.9356 18.8759 88.0355 18.8459C84.1055 18.8159 80.4755 21.3359 80.4755 26.5259C80.4755 31.7159 84.1055 34.2359 88.0355 34.2059C91.6055 34.1759 94.0655 32.5259 95.2055 29.7959L92.1755 28.5359C91.2455 30.3959 89.7756 31.0559 88.0355 31.0859C86.5355 31.1159 84.8255 30.3959 84.4655 27.7259H95.5355C95.5955 27.3359 95.6255 26.9459 95.6255 26.5259ZM88.0355 21.9359C89.5355 21.9659 91.0655 22.7759 91.5455 24.9359H84.5255C85.0355 22.7459 86.5655 21.9059 88.0355 21.9359Z" fill="white"/>
<path d="M104.639 21.8159V18.8459H102.179V14.8259L98.2787 16.0259V18.8459H95.8187V21.8159H98.2787V29.5859C98.2787 32.5259 98.5187 34.0259 103.079 34.0259H104.129V30.6059H103.079C102.359 30.6059 102.179 30.4859 102.179 29.5859V21.8159H104.639Z" fill="white"/>
<path d="M110.434 30.7559L118.714 22.2959V19.0259H106.294V22.2959H114.334L106.054 30.7559V34.0259H118.804V30.7559H110.434Z" fill="white"/>
<path d="M120.202 29.7959L124.132 29.1959C124.402 30.6959 126.172 31.2659 127.252 31.2659C128.362 31.2659 130.282 31.0259 130.282 29.2259C130.282 25.7159 120.652 30.0959 120.652 23.3759C120.652 19.0559 125.662 18.8159 127.252 18.8159C128.752 18.8159 133.102 19.0559 134.002 22.5359L130.282 23.3159C129.952 21.7259 128.272 21.4259 127.372 21.4259C126.472 21.4259 124.552 21.6359 124.552 23.3759C124.552 26.8559 134.182 22.4159 134.182 29.2259C134.182 33.8159 128.902 34.2059 127.252 34.2059C125.752 34.2059 120.982 33.8159 120.202 29.7959Z" fill="white"/>
<path d="M139.249 26.5259C139.249 30.1859 141.199 31.2959 143.239 31.2659C145.069 31.2359 146.329 30.4859 147.079 28.3859L150.289 29.9459C149.119 33.0059 146.269 34.1759 143.239 34.2059C139.309 34.2359 135.349 31.7159 135.349 26.5259C135.349 21.3359 139.309 18.8159 143.239 18.8459C146.269 18.8759 149.119 20.0459 150.289 23.1059L147.079 24.6659C146.329 22.5659 145.069 21.8159 143.239 21.7859C141.199 21.7559 139.249 22.8659 139.249 26.5259Z" fill="white"/>
<path d="M160.758 18.7859C158.748 18.7859 156.918 19.8359 155.748 22.0859V13.0259H151.848V34.0259H155.748V28.7159C155.748 21.8459 158.598 21.2759 159.648 21.2759C161.328 21.2759 161.568 23.0159 161.568 25.5659V34.0259H165.468V25.5659C165.468 22.3859 164.958 18.7859 160.758 18.7859Z" fill="white"/>
<path d="M181.934 26.5259C181.934 21.3359 178.244 18.8759 174.344 18.8459C170.414 18.8159 166.784 21.3359 166.784 26.5259C166.784 31.7159 170.414 34.2359 174.344 34.2059C177.914 34.1759 180.374 32.5259 181.514 29.7959L178.484 28.5359C177.554 30.3959 176.084 31.0559 174.344 31.0859C172.844 31.1159 171.134 30.3959 170.774 27.7259H181.844C181.904 27.3359 181.934 26.9459 181.934 26.5259ZM174.344 21.9359C175.844 21.9659 177.374 22.7759 177.854 24.9359H170.834C171.344 22.7459 172.874 21.9059 174.344 21.9359Z" fill="white"/>
<defs>
<clipPath id="clip0_281_11691">
<rect width="44" height="44" fill="white" transform="translate(0.70813 2.1167)"/>
</clipPath>
</defs>
</svg>
