<svg width="189" height="53" viewBox="0 0 189 53" fill="none" xmlns="http://www.w3.org/2000/svg">
<path fill-rule="evenodd" clip-rule="evenodd" d="M22.4292 37.6149C29.3133 37.7351 34.9914 32.2518 35.1115 25.3677C35.2317 18.4836 29.7484 12.8055 22.8643 12.6854C15.9802 12.5652 10.3021 18.0485 10.182 24.9326C10.0618 31.8167 15.5451 37.4947 22.4292 37.6149ZM22.2628 47.1468C34.4112 47.3588 44.4313 37.6825 44.6434 25.5341C44.8554 13.3857 35.1791 3.36554 23.0307 3.15348C10.8823 2.94143 0.862156 12.6178 0.650105 24.7662C0.438053 36.9146 10.1144 46.9347 22.2628 47.1468Z" fill="white"/>
<path d="M22.8899 25.6364C25.2206 23.3856 28.9346 23.4505 31.1854 25.7812L42.3925 37.3865C44.6433 39.7172 44.5784 43.4312 42.2477 45.682C39.917 47.9327 36.203 47.8679 33.9523 45.5372L22.7451 33.9318C20.4944 31.6011 20.5592 27.8871 22.8899 25.6364Z" fill="white"/>
<path d="M25.892 37.1903L33.0097 44.561C36.5182 42.6837 39.4629 39.8817 41.5123 36.4748L34.4528 29.1645C33.122 33.0813 29.9004 36.1119 25.892 37.1903Z" fill="white"/>
<path d="M79.9468 38.2523C79.2986 39.0251 78.5136 39.6088 77.5919 40.0034C76.6889 40.3984 75.6961 40.5864 74.6136 40.5675C73.1578 40.5421 71.8476 40.2019 70.6828 39.5468C69.5178 38.9104 68.1932 37.7857 66.7091 36.1729C64.94 35.918 63.3635 35.3211 61.9796 34.3821C60.6145 33.4435 59.5525 32.2488 58.7937 30.798C58.0539 29.3288 57.6993 27.7171 57.7299 25.9627C57.7635 24.0403 58.2509 22.3219 59.1921 20.8074C60.1524 19.2746 61.452 18.0837 63.0911 17.2349C64.7488 16.3864 66.5948 15.9798 68.6292 16.0154C70.6636 16.0509 72.485 16.5214 74.0934 17.4269C75.7018 18.3325 76.9591 19.5679 77.8653 21.1333C78.7718 22.6801 79.2082 24.4146 79.1747 26.337C79.1349 28.614 78.4562 30.5997 77.1384 32.2943C75.8393 33.9893 74.1294 35.1543 72.0086 35.7893C72.4667 36.2827 72.9086 36.6359 73.3343 36.8486C73.7783 37.0804 74.2523 37.2007 74.7562 37.2095C75.9694 37.2307 77.0417 36.764 77.9732 35.8094L79.9468 38.2523ZM62.3212 26.0428C62.3001 27.2559 62.5425 28.343 63.0484 29.304C63.5731 30.2653 64.2973 31.0247 65.221 31.5822C66.1451 32.1211 67.1857 32.4007 68.3428 32.4209C69.5 32.4411 70.5497 32.198 71.492 31.6917C72.4347 31.1667 73.1756 30.4329 73.7148 29.4902C74.2727 28.5478 74.5622 27.47 74.5834 26.2568C74.6045 25.0437 74.3528 23.9565 73.8282 22.9952C73.3222 22.0342 72.6072 21.2843 71.6831 20.7454C70.7594 20.1878 69.7189 19.899 68.5618 19.8788C67.4046 19.8586 66.3547 20.111 65.4121 20.6359C64.4698 21.1422 63.7197 21.8666 63.1618 22.809C62.6226 23.7517 62.3424 24.8296 62.3212 26.0428Z" fill="white"/>
<path d="M97.5408 21.3928L97.2779 36.4545L93.1345 36.3821L93.1658 34.5904C92.5758 35.2335 91.8764 35.7254 91.0677 36.066C90.2593 36.388 89.3885 36.5408 88.4553 36.5245C86.4769 36.49 84.9191 35.8933 83.7818 34.7347C82.6445 33.576 82.0954 31.8768 82.1345 29.6371L82.2831 21.1264L86.6504 21.2027L86.5131 29.0695C86.4707 31.4958 87.4667 32.7267 89.5011 32.7622C90.5463 32.7804 91.392 32.4591 92.0383 31.7983C92.6849 31.1188 93.02 30.1072 93.0434 28.7634L93.1734 21.3165L97.5408 21.3928Z" fill="white"/>
<path d="M108.487 36.8741C106.9 36.8465 105.478 36.4949 104.221 35.8195C102.982 35.1258 102.018 34.1848 101.329 32.9966C100.641 31.8084 100.309 30.4678 100.336 28.9747C100.362 27.4816 100.739 26.1533 101.469 24.9899C102.199 23.8264 103.195 22.929 104.457 22.2976C105.738 21.6478 107.171 21.3368 108.758 21.3645C110.344 21.3922 111.757 21.7529 112.995 22.4466C114.234 23.1217 115.198 24.0533 115.887 25.2415C116.576 26.4297 116.907 27.7704 116.881 29.2635C116.855 30.7566 116.477 32.0849 115.747 33.2483C115.018 34.4117 114.022 35.3185 112.759 35.9686C111.497 36.6 110.073 36.9018 108.487 36.8741ZM108.549 33.2907C109.669 33.3102 110.59 32.9529 111.313 32.2188C112.054 31.4662 112.436 30.4554 112.458 29.1863C112.48 27.9171 112.133 26.9029 111.419 26.1437C110.723 25.3661 109.815 24.9675 108.695 24.948C107.575 24.9284 106.645 25.2949 105.903 26.0474C105.163 26.7813 104.781 27.7828 104.759 29.0519C104.737 30.321 105.083 31.3446 105.797 32.1225C106.512 32.8817 107.43 33.2711 108.549 33.2907Z" fill="white"/>
<path d="M129.396 36.287C128.961 36.5968 128.425 36.8301 127.788 36.987C127.169 37.1256 126.514 37.1888 125.824 37.1768C124.032 37.1455 122.65 36.664 121.676 35.7322C120.722 34.8007 120.26 33.4484 120.291 31.6754L120.399 25.4883L118.075 25.4477L118.134 22.0883L120.458 22.1288L120.522 18.4614L124.889 18.5376L124.825 22.2051L128.576 22.2705L128.518 25.63L124.766 25.5645L124.659 31.6956C124.648 32.3302 124.798 32.8275 125.109 33.1877C125.439 33.5295 125.903 33.7056 126.5 33.716C127.191 33.7281 127.782 33.5517 128.274 33.1869L129.396 36.287Z" fill="white"/>
<path d="M132.098 21.9959L136.465 22.0722L136.202 37.1339L131.835 37.0577L132.098 21.9959ZM134.318 19.9344C133.516 19.9204 132.866 19.6757 132.371 19.2003C131.875 18.7249 131.633 18.1419 131.645 17.4514C131.657 16.7608 131.919 16.1866 132.431 15.7288C132.943 15.271 133.601 15.0491 134.403 15.0631C135.206 15.0771 135.855 15.3125 136.351 15.7692C136.847 16.226 137.089 16.7903 137.078 17.4622C137.065 18.1901 136.802 18.7922 136.29 19.2687C135.778 19.7265 135.121 19.9484 134.318 19.9344Z" fill="white"/>
<path d="M155.14 29.9873C155.139 30.0433 155.104 30.4347 155.035 31.1617L143.641 30.9628C143.83 31.8995 144.302 32.6452 145.058 33.1998C145.814 33.7544 146.761 34.0417 147.899 34.0616C148.683 34.0752 149.376 33.9753 149.977 33.7618C150.597 33.5299 151.173 33.1666 151.704 32.6718L153.984 35.2319C152.537 36.8309 150.451 37.6066 147.726 37.5591C146.028 37.5294 144.531 37.1766 143.236 36.5005C141.941 35.8058 140.95 34.8644 140.261 33.6762C139.572 32.488 139.241 31.1473 139.267 29.6542C139.293 28.1798 139.661 26.8607 140.372 25.6969C141.102 24.5148 142.08 23.6077 143.304 22.9757C144.548 22.3253 145.925 22.0133 147.437 22.0397C148.912 22.0654 150.241 22.406 151.424 23.0614C152.607 23.7168 153.525 24.6476 154.176 25.8538C154.846 27.0417 155.167 28.4195 155.14 29.9873ZM147.408 25.3436C146.418 25.3264 145.583 25.5918 144.901 26.14C144.22 26.6882 143.796 27.4463 143.629 28.4142L151.048 28.5437C150.916 27.5892 150.518 26.8262 149.856 26.2545C149.194 25.6642 148.378 25.3606 147.408 25.3436Z" fill="white"/>
<path d="M167.338 22.387C169.205 22.4196 170.697 23.0058 171.816 24.1455C172.954 25.2855 173.503 26.9567 173.465 29.159L173.314 37.7817L168.947 37.7055L169.086 29.7547C169.107 28.5602 168.861 27.6691 168.348 27.0814C167.836 26.475 167.086 26.1632 166.096 26.1459C164.995 26.1267 164.112 26.4567 163.447 27.1358C162.782 27.7963 162.438 28.7985 162.414 30.1423L162.284 37.5891L157.917 37.5129L158.18 22.4512L162.351 22.524L162.32 24.2878C162.91 23.6633 163.637 23.1906 164.501 22.8696C165.366 22.53 166.312 22.3691 167.338 22.387Z" fill="white"/>
<path d="M187 37.2925C186.566 37.6023 186.03 37.8356 185.392 37.9925C184.774 38.1311 184.119 38.1943 183.428 38.1823C181.637 38.151 180.254 37.6694 179.281 36.7377C178.326 35.8062 177.865 34.4539 177.896 32.6809L178.004 26.4938L175.68 26.4532L175.739 23.0938L178.062 23.1343L178.126 19.4669L182.494 19.5431L182.43 23.2105L186.181 23.276L186.122 26.6355L182.371 26.57L182.264 32.7011C182.253 33.3357 182.403 33.833 182.714 34.1932C183.044 34.535 183.508 34.7111 184.105 34.7215C184.795 34.7336 185.387 34.5572 185.878 34.1924L187 37.2925Z" fill="white"/>
</svg>
