<svg width="133" height="133" viewBox="0 0 133 133" fill="none" xmlns="http://www.w3.org/2000/svg">
<g clip-path="url(#clip0_1_1808)">
<mask id="path-1-inside-1_1_1808" fill="white">
<path d="M48.5524 -0.00046462C42.1139 11.1513 40.3692 24.4039 43.702 36.842C47.0348 49.2802 55.1721 59.8849 66.3238 66.3234C77.4755 72.7618 90.7282 74.5066 103.166 71.1738C115.604 67.841 126.209 59.7037 132.648 48.552L90.6 24.2757L48.5524 -0.00046462Z"/>
</mask>
<path d="M48.5524 -0.00046462C42.1139 11.1513 40.3692 24.4039 43.702 36.842C47.0348 49.2802 55.1721 59.8849 66.3238 66.3234C77.4755 72.7618 90.7282 74.5066 103.166 71.1738C115.604 67.841 126.209 59.7037 132.648 48.552L90.6 24.2757L48.5524 -0.00046462Z" fill="#FF783E" stroke="#151515" stroke-width="2" mask="url(#path-1-inside-1_1_1808)"/>
<mask id="path-2-inside-2_1_1808" fill="white">
<path d="M84.0952 132.647C90.5336 121.495 92.2784 108.243 88.9456 95.8044C85.6128 83.3663 77.4755 72.7615 66.3238 66.3231C55.172 59.8846 41.9194 58.1399 29.4813 61.4727C17.0431 64.8055 6.43836 72.9428 -9.15527e-05 84.0945L42.0475 108.371L84.0952 132.647Z"/>
</mask>
<path d="M84.0952 132.647C90.5336 121.495 92.2784 108.243 88.9456 95.8044C85.6128 83.3663 77.4755 72.7615 66.3238 66.3231C55.172 59.8846 41.9194 58.1399 29.4813 61.4727C17.0431 64.8055 6.43836 72.9428 -9.15527e-05 84.0945L42.0475 108.371L84.0952 132.647Z" fill="white" stroke="#151515" stroke-width="2" mask="url(#path-2-inside-2_1_1808)"/>
</g>
<defs>
<clipPath id="clip0_1_1808">
<rect width="97.1049" height="97.1049" fill="white" transform="translate(48.5525) rotate(30)"/>
</clipPath>
</defs>
</svg>
