<svg width="200" height="52" viewBox="0 0 200 52" fill="none" xmlns="http://www.w3.org/2000/svg">
<path d="M37.2129 12.2369C36.7883 11.7972 36.3637 11.3575 35.9391 10.9178C34.6668 9.51226 33.308 8.10523 31.5945 7.21075C29.6247 6.13888 27.4594 6.36045 25.2986 6.32273C22.0142 6.2654 13.8033 6.12208 8.96318 6.0376L12.1706 10.5029C18.1343 10.607 27.4689 10.7699 31.7904 10.8454C33.6055 10.8771 35.1552 11.2499 36.6079 12.2263C36.8657 12.3173 37.125 12.3218 37.2129 12.2369Z" fill="white"/>
<path d="M40.7193 19.3878C40.2947 18.9481 39.8701 18.5084 39.4455 18.0687C38.1731 16.6632 36.8144 15.2562 35.1009 14.3617C33.131 13.2898 30.9658 13.5114 28.805 13.4737C25.9528 13.4239 19.1247 13.3047 14.2846 13.2202L17.492 17.6855C23.3693 17.7881 31.4074 17.9284 35.3832 17.9978C37.1983 18.0295 38.748 18.4024 40.2007 19.3788C40.3721 19.4682 40.5449 19.4712 40.7193 19.3878Z" fill="white"/>
<path d="M44.6609 26.3726C44.2363 25.9329 43.8116 25.4932 43.387 25.0535C42.1147 23.6479 40.756 22.2409 39.0424 21.3464C37.0726 20.2745 34.9073 20.4961 32.7466 20.4584C30.0672 20.4116 24.1899 20.3091 19.4362 20.2261L22.6436 24.6914C28.3481 24.791 35.6083 24.9177 39.2384 24.981C41.0534 25.0127 42.6031 25.3856 44.0558 26.362C44.3136 26.453 44.485 26.5424 44.6609 26.3726Z" fill="white"/>
<path d="M8.06985 37.4056C8.49446 37.8453 8.91907 38.285 9.34369 38.7247C10.616 40.1303 11.9748 41.5373 13.6883 42.4318C15.6581 43.5036 17.8234 43.282 19.9842 43.3198L36.3196 43.6049L33.1122 39.1396C27.1484 39.0355 17.8139 38.8726 13.4924 38.7972C11.6773 38.7655 10.1276 38.3926 8.67487 37.4162C8.41708 37.3252 8.24422 37.3222 8.06985 37.4056Z" fill="white"/>
<path d="M4.56338 30.2553C4.98799 30.695 5.4126 31.1346 5.83722 31.5743C7.10954 32.9799 8.46829 34.3869 10.1818 35.2814C12.1516 36.3533 14.3169 36.1317 16.4777 36.1694L30.9981 36.4229L27.7906 31.9575C21.9133 31.855 13.8753 31.7147 9.89946 31.6453C8.08442 31.6136 6.53469 31.2407 5.08196 30.2643C4.91061 30.1749 4.73775 30.1718 4.56338 30.2553Z" fill="white"/>
<path d="M0.709745 23.1849C1.13436 23.6246 1.55897 24.0643 1.98358 24.504C3.2559 25.9096 4.61466 27.3166 6.32819 28.2111C8.298 29.283 10.4633 29.0614 12.6241 29.0991L25.9344 29.3314L22.727 24.8661C17.0225 24.7665 9.76236 24.6398 6.13226 24.5764C4.31721 24.5448 2.76749 24.1719 1.31476 23.1955C1.05697 23.1045 0.884115 23.1015 0.709745 23.1849Z" fill="white"/>
<path d="M54.7861 15.3892L54.4372 35.3781L58.8325 35.4548L58.9767 27.1961L67.3474 27.3422L67.407 23.9267L59.0363 23.7806L59.1169 19.1613L68.7754 19.3299L68.8399 15.6345L54.7861 15.3892Z" fill="white"/>
<path d="M79.6684 27.0252L73.2014 26.9123C73.225 26.6327 73.2865 26.3164 73.386 25.9634C73.5042 25.6107 73.6874 25.2779 73.9355 24.9648C74.2024 24.6521 74.5429 24.3967 74.9571 24.1985C75.3902 23.9821 75.9241 23.8794 76.5587 23.8904C77.5292 23.9074 78.2432 24.1812 78.7007 24.7119C79.1768 25.243 79.4994 26.0141 79.6684 27.0252ZM73.1574 29.4319L83.5999 29.6142C83.6941 28.4957 83.6195 27.4209 83.3761 26.3898C83.1327 25.3587 82.7194 24.4367 82.1362 23.6237C81.5716 22.8111 80.8361 22.1635 79.9298 21.6809C79.0237 21.1797 77.9548 20.9184 76.7229 20.8969C75.6218 20.8776 74.6105 21.056 73.6891 21.432C72.7864 21.8083 72.0024 22.336 71.3372 23.0152C70.6722 23.6757 70.1543 24.4694 69.7834 25.3964C69.4125 26.3234 69.2176 27.3282 69.1987 28.4107C69.1791 29.5305 69.3292 30.56 69.6488 31.499C69.9872 32.4384 70.4677 33.2496 71.0906 33.9325C71.7134 34.6155 72.4789 35.1516 73.3869 35.5409C74.2952 35.9114 75.3186 36.1067 76.4571 36.1265C78.0995 36.1552 79.5058 35.8064 80.676 35.08C81.8462 34.3536 82.7264 33.1275 83.3166 31.4015L79.8172 31.3404C79.6787 31.7861 79.3166 32.2092 78.7308 32.6097C78.1454 32.9915 77.4514 33.1754 76.6489 33.1614C75.5291 33.1419 74.6756 32.8376 74.0884 32.2486C73.5013 31.6596 73.191 30.7207 73.1574 29.4319Z" fill="white"/>
<path d="M85.0153 25.8863C85.0875 24.9541 85.3344 24.1836 85.7557 23.5749C86.1771 22.9662 86.7083 22.4807 87.3494 22.1185C87.9905 21.7563 88.7042 21.5074 89.4907 21.3718C90.2962 21.2178 91.1002 21.1478 91.9028 21.1618C92.6306 21.1745 93.3669 21.2434 94.1115 21.3684C94.8564 21.4747 95.5342 21.6826 96.1449 21.992C96.7556 22.3013 97.2522 22.7301 97.6347 23.2782C98.0175 23.8076 98.2013 24.5109 98.186 25.3881L98.0545 32.919C98.0431 33.5722 98.0695 34.1981 98.1338 34.7966C98.198 35.3952 98.3208 35.8454 98.5022 36.1473L94.4708 36.0769C94.4001 35.8516 94.3387 35.6265 94.2866 35.4016C94.2535 35.1583 94.2297 34.9152 94.2153 34.6722C93.5694 35.3144 92.8148 35.7586 91.9517 36.0049C91.0886 36.2512 90.2091 36.3666 89.3133 36.3509C88.6227 36.3389 87.9803 36.2437 87.386 36.0653C86.7917 35.8869 86.2736 35.6164 85.8319 35.254C85.3902 34.8916 85.0434 34.4375 84.7915 33.8916C84.5583 33.3462 84.4483 32.7001 84.4613 31.9536C84.4756 31.1324 84.6273 30.4629 84.9164 29.9452C85.2245 29.4092 85.6052 28.9864 86.0587 28.677C86.5308 28.3678 87.0575 28.1437 87.6387 28.0044C88.2389 27.8469 88.8384 27.7267 89.4373 27.6438C90.0361 27.5609 90.6253 27.4965 91.2049 27.4506C91.7845 27.4047 92.2992 27.3297 92.7491 27.2255C93.199 27.1213 93.5563 26.9689 93.8212 26.7682C94.0864 26.5487 94.2133 26.2336 94.2018 25.8226C94.2093 25.3934 94.1405 25.0561 93.9954 24.8109C93.8693 24.5473 93.6861 24.3481 93.4457 24.2132C93.2244 24.06 92.9554 23.9619 92.6388 23.9191C92.3411 23.8579 92.015 23.8242 91.6604 23.818C90.8765 23.8043 90.2576 23.9615 89.8039 24.2897C89.3501 24.6178 89.079 25.1731 88.9907 25.9557L85.0153 25.8863ZM94.1465 28.9862C93.976 29.1325 93.7592 29.2501 93.4963 29.3389C93.2524 29.4093 92.9806 29.4699 92.681 29.5207C92.4001 29.5718 92.1006 29.6132 91.7827 29.645C91.4648 29.6768 91.1467 29.7179 90.8284 29.7684C90.5288 29.8192 90.2289 29.8886 89.9286 29.9767C89.647 30.0651 89.3928 30.1914 89.1659 30.3555C88.958 30.5012 88.7866 30.6942 88.6517 30.9346C88.5168 31.1749 88.4461 31.4817 88.4396 31.855C88.4334 32.2096 88.4935 32.5094 88.6199 32.7543C88.7464 32.9992 88.9202 33.1983 89.1416 33.3515C89.3633 33.486 89.6229 33.5839 89.9206 33.6451C90.2182 33.7063 90.5257 33.7397 90.843 33.7452C91.6269 33.7589 92.2357 33.6389 92.6696 33.3851C93.1034 33.1313 93.426 32.8288 93.6375 32.4778C93.8494 32.1081 93.9772 31.737 94.021 31.3643C94.0835 30.992 94.1167 30.6939 94.1206 30.4699L94.1465 28.9862Z" fill="white"/>
<path d="M105.536 21.7918L105.612 17.4525L101.636 17.3831L101.561 21.7225L99.1529 21.6804L99.1065 24.34L101.514 24.382L101.365 32.9207C101.352 33.6486 101.463 34.2387 101.698 34.6908C101.933 35.143 102.254 35.494 102.66 35.7438C103.085 35.9939 103.568 36.161 104.108 36.2451C104.666 36.3482 105.253 36.4051 105.869 36.4159C106.261 36.4227 106.662 36.4204 107.073 36.4089C107.484 36.3974 107.858 36.3666 108.195 36.3165L108.249 33.2369C108.061 33.271 107.865 33.2956 107.659 33.3107C107.454 33.3257 107.239 33.3313 107.015 33.3274C106.343 33.3157 105.897 33.1959 105.677 32.968C105.457 32.7401 105.353 32.2902 105.364 31.6183L105.49 24.4514L108.401 24.5023L108.448 21.8427L105.536 21.7918Z" fill="white"/>
<path d="M109.595 16.3459L109.246 36.3348L113.222 36.4042L113.354 28.8174C113.38 27.3429 113.641 26.2927 114.137 25.6666C114.634 25.0218 115.424 24.7089 116.506 24.7277C117.458 24.7444 118.115 25.0545 118.478 25.6583C118.841 26.2434 119.013 27.1332 118.992 28.3277L118.849 36.5024L122.824 36.5718L122.98 27.6692C122.995 26.7733 122.926 25.96 122.77 25.2291C122.634 24.48 122.374 23.85 121.991 23.3393C121.608 22.8098 121.074 22.3991 120.388 22.1071C119.722 21.7968 118.857 21.6323 117.793 21.6137C117.046 21.6007 116.278 21.7833 115.487 22.1616C114.696 22.5212 114.042 23.1165 113.523 23.9476L113.439 23.9461L113.571 16.4153L109.595 16.3459Z" fill="white"/>
<path d="M134.898 27.9892L128.431 27.8763C128.454 27.5967 128.516 27.2804 128.615 26.9274C128.733 26.5748 128.917 26.2419 129.165 25.9289C129.432 25.6161 129.772 25.3607 130.186 25.1626C130.619 24.9461 131.153 24.8434 131.788 24.8545C132.758 24.8714 133.472 25.1452 133.93 25.676C134.406 26.207 134.729 26.9781 134.898 27.9892ZM128.387 30.396L138.829 30.5782C138.923 29.4597 138.849 28.3849 138.605 27.3538C138.362 26.3228 137.949 25.4007 137.365 24.5878C136.801 23.7751 136.065 23.1275 135.159 22.645C134.253 22.1437 133.184 21.8824 131.952 21.8609C130.851 21.8417 129.84 22.02 128.918 22.396C128.016 22.7723 127.232 23.3001 126.566 23.9792C125.901 24.6397 125.384 25.4335 125.013 26.3605C124.642 27.2875 124.447 28.2922 124.428 29.3747C124.408 30.4945 124.558 31.524 124.878 32.463C125.216 33.4024 125.697 34.2136 126.32 34.8966C126.943 35.5795 127.708 36.1157 128.616 36.5049C129.524 36.8755 130.548 37.0707 131.686 37.0906C133.329 37.1192 134.735 36.7704 135.905 36.044C137.075 35.3177 137.956 34.0915 138.546 32.3656L135.046 32.3045C134.908 32.7501 134.546 33.1732 133.96 33.5737C133.375 33.9556 132.681 34.1395 131.878 34.1255C130.758 34.1059 129.905 33.8016 129.318 33.2126C128.731 32.6236 128.42 31.6847 128.387 30.396Z" fill="white"/>
<path d="M140.49 22.402L140.238 36.8758L144.213 36.9452L144.327 30.4222C144.338 29.7689 144.414 29.1635 144.555 28.6059C144.695 28.0482 144.918 27.5667 145.224 27.1613C145.549 26.7376 145.965 26.4088 146.473 26.175C146.981 25.9411 147.599 25.8306 148.327 25.8433C148.57 25.8475 148.822 25.8706 149.082 25.9125C149.343 25.9357 149.567 25.9676 149.753 26.0082L149.817 22.3127C149.501 22.2139 149.213 22.1622 148.952 22.1576C148.448 22.1488 147.961 22.215 147.492 22.3562C147.023 22.4973 146.58 22.7043 146.165 22.9771C145.75 23.2312 145.38 23.5515 145.056 23.9379C144.732 24.3056 144.473 24.7118 144.279 25.1565L144.223 25.1555L144.27 22.4679L140.49 22.402Z" fill="white"/>
<path d="M155.159 33.4397L155.378 20.8416L158.514 20.8963C159.597 20.9152 160.499 21.0896 161.221 21.4196C161.963 21.7313 162.552 22.1803 162.99 22.7667C163.428 23.3531 163.733 24.0585 163.905 24.883C164.097 25.6891 164.183 26.5961 164.166 27.604C164.147 28.7051 163.99 29.6359 163.697 30.3962C163.404 31.1565 163.02 31.7753 162.544 32.2524C162.07 32.7108 161.532 33.0375 160.931 33.2324C160.33 33.4272 159.713 33.5191 159.078 33.5081L155.159 33.4397ZM151.048 17.0694L150.699 37.0584L159.321 37.2089C160.852 37.2356 162.181 37.0068 163.31 36.5224C164.458 36.0197 165.413 35.3269 166.175 34.4441C166.956 33.5616 167.543 32.5077 167.938 31.2824C168.333 30.0571 168.543 28.7165 168.568 27.2607C168.597 25.5997 168.389 24.1491 167.944 22.9092C167.518 21.6696 166.901 20.632 166.094 19.7964C165.306 18.9612 164.356 18.3285 163.243 17.8984C162.149 17.4686 160.958 17.2424 159.67 17.2199L151.048 17.0694Z" fill="white"/>
<path d="M180.086 28.778L173.619 28.6651C173.642 28.3855 173.704 28.0692 173.803 27.7162C173.921 27.3635 174.105 27.0307 174.353 26.7176C174.62 26.4049 174.96 26.1495 175.374 25.9513C175.807 25.7349 176.341 25.6322 176.976 25.6432C177.946 25.6602 178.66 25.934 179.118 26.4647C179.594 26.9958 179.917 27.7669 180.086 28.778ZM173.575 31.1847L184.017 31.367C184.111 30.2485 184.037 29.1737 183.793 28.1426C183.55 27.1115 183.137 26.1895 182.553 25.3765C181.989 24.5639 181.253 23.9163 180.347 23.4337C179.441 22.9325 178.372 22.6711 177.14 22.6496C176.039 22.6304 175.028 22.8088 174.106 23.1848C173.204 23.5611 172.42 24.0888 171.754 24.768C171.089 25.4285 170.571 26.2222 170.201 27.1492C169.83 28.0762 169.635 29.081 169.616 30.1635C169.596 31.2833 169.746 32.3127 170.066 33.2518C170.404 34.1912 170.885 35.0024 171.508 35.6853C172.131 36.3683 172.896 36.9044 173.804 37.2936C174.712 37.6642 175.736 37.8594 176.874 37.8793C178.517 37.908 179.923 37.5591 181.093 36.8328C182.263 36.1064 183.144 34.8803 183.734 33.1543L180.234 33.0932C180.096 33.5389 179.734 33.962 179.148 34.3625C178.563 34.7443 177.869 34.9282 177.066 34.9142C175.946 34.8947 175.093 34.5904 174.506 34.0014C173.918 33.4124 173.608 32.4735 173.575 31.1847Z" fill="white"/>
<path d="M193.432 37.8043L198.584 23.416L194.637 23.3471L191.413 33.1763L191.357 33.1754L188.478 23.2396L184.306 23.1668L189.009 37.7271L193.432 37.8043Z" fill="white"/>
</svg>
