<svg width="100" height="100" viewBox="0 0 100 100" fill="none" xmlns="http://www.w3.org/2000/svg">
<g clip-path="url(#clip0_40_1711)">
<path d="M59.7974 23.5171H30.397V9.80542H59.7974V23.5171Z" fill="#FF783E"/>
<path d="M79.4083 50.9724H30.397V29.4164H79.4083V50.9724Z" fill="#FF783E"/>
<path d="M88.642 20.183C88.6223 20.1633 69.0066 0.548242 69.0281 0.569531C68.6508 0.19375 68.1408 0 67.6498 0H28.4279C24.107 0 20.5916 3.51543 20.5916 7.83633V7.84434H18.6225C14.3016 7.84434 10.7861 11.3598 10.7861 15.6809V92.1637C10.7861 96.4846 14.3016 100 18.6225 100H71.5721C75.893 100 79.4084 96.4846 79.4084 92.1637V90.1945H81.3775C85.6984 90.1945 89.2139 86.6791 89.2139 82.3582V21.5641C89.2139 20.6986 88.6551 20.2025 88.642 20.183ZM69.6029 6.66855L82.5455 19.6111H69.6029V6.66855ZM75.5022 92.1637C75.5022 94.3309 73.7393 96.0938 71.5721 96.0938H18.6225C16.4553 96.0938 14.6924 94.3309 14.6924 92.1637V15.6809C14.6924 13.5137 16.4553 11.7506 18.6225 11.7506H20.5916V82.3582C20.5916 86.6791 24.107 90.1945 28.4279 90.1945H75.5022V92.1637ZM81.3775 86.2883H28.4279C26.2607 86.2883 24.4979 84.5254 24.4979 82.3582V7.83633C24.4979 5.66914 26.2607 3.90625 28.4279 3.90625H65.6967V21.5641C65.6967 22.6426 66.5713 23.5172 67.6498 23.5172H85.3076V82.3582C85.3076 84.5254 83.5447 86.2883 81.3775 86.2883Z" fill="#151515"/>
<path d="M77.4552 56.8718H32.3501C31.2716 56.8718 30.397 57.7464 30.397 58.825C30.397 59.9035 31.2716 60.7781 32.3501 60.7781H77.4552C78.5339 60.7781 79.4083 59.9035 79.4083 58.825C79.4083 57.7464 78.5339 56.8718 77.4552 56.8718Z" fill="#151515"/>
<path d="M77.4552 66.6774H32.3501C31.2716 66.6774 30.397 67.552 30.397 68.6305C30.397 69.709 31.2716 70.5836 32.3501 70.5836H77.4552C78.5339 70.5836 79.4083 69.709 79.4083 68.6305C79.4083 67.552 78.5339 66.6774 77.4552 66.6774Z" fill="#151515"/>
<path d="M77.4552 76.4828H32.3501C31.2716 76.4828 30.397 77.3574 30.397 78.4359C30.397 79.5144 31.2716 80.389 32.3501 80.389H77.4552C78.5339 80.389 79.4083 79.5144 79.4083 78.4359C79.4083 77.3574 78.5339 76.4828 77.4552 76.4828Z" fill="#151515"/>
</g>
<defs>
<clipPath id="clip0_40_1711">
<rect width="100" height="100" fill="white"/>
</clipPath>
</defs>
</svg>
