<svg width="100" height="100" viewBox="0 0 100 100" fill="none" xmlns="http://www.w3.org/2000/svg">
<path d="M29.4922 60.7439H70.5078V78.3205H29.4922V60.7439Z" fill="#FF783E"/>
<path d="M63.5139 39.2633C65.0576 43.0797 64.9971 47.3092 63.5117 50.9766H70.508V39.26C67.8307 39.2627 65.5156 39.2635 63.5139 39.2633Z" fill="#FF783E"/>
<path d="M70.5078 29.4922V11.9141H29.4922V29.4922H70.5078Z" fill="#FF783E"/>
<path d="M45.1172 45.1172C45.1172 48.0215 47.2285 50.4297 50 50.8926C52.7416 50.4385 54.8828 48.0453 54.8828 45.1172C54.8828 42.2129 52.7715 39.8047 50 39.3418C47.2584 39.7959 45.1172 42.1891 45.1172 45.1172Z" fill="#FF783E"/>
<path d="M36.4928 39.2551H29.4922V50.9766H36.4883C34.8707 46.9825 35.033 42.8315 36.4928 39.2551Z" fill="#FF783E"/>
<path d="M53.9062 86.1328H46.0938C45.015 86.1328 44.1406 87.0072 44.1406 88.0859C44.1406 89.1646 45.015 90.0391 46.0938 90.0391H53.9062C54.9848 90.0391 55.8594 89.1646 55.8594 88.0859C55.8594 87.0072 54.9848 86.1328 53.9062 86.1328Z" fill="#151515"/>
<path d="M82.2266 30.5086V6.83594C82.2266 3.0666 79.16 0 75.3906 0H24.6094C20.84 0 17.7734 3.0666 17.7734 6.83594V30.5086C13.0658 33.6658 9.96094 39.0355 9.96094 45.1172C9.96094 51.1988 13.0658 56.5686 17.7734 59.7258V93.1641C17.7734 96.9334 20.84 100 24.6094 100H75.3906C79.16 100 82.2266 96.9334 82.2266 93.1641V59.7258C86.9342 56.5686 90.0391 51.1988 90.0391 45.1172C90.0391 39.0355 86.9342 33.6658 82.2266 30.5086ZM21.6797 6.83594C21.6797 5.22051 22.9939 3.90625 24.6094 3.90625H75.3906C77.0062 3.90625 78.3203 5.22051 78.3203 6.83594V28.5445C76.4867 27.8943 74.5146 27.5391 72.4609 27.5391C70.5227 27.5391 29.548 27.5391 27.5391 27.5391C25.4854 27.5391 23.5133 27.8943 21.6797 28.5445V6.83594ZM13.8672 45.1172C13.8672 37.5785 20.0004 31.4453 27.5391 31.4453H39.932C37.9902 33.0164 36.3855 34.9936 35.2359 37.3047H27.5391C23.2312 37.3047 19.7266 40.8094 19.7266 45.1172C19.7266 49.425 23.2312 52.9297 27.5391 52.9297C42.3613 52.9297 40.5402 52.9168 46.4891 52.9301C49.6008 52.9367 49.6596 52.9371 50.324 52.8188V52.8186C54.0977 52.1912 56.8359 48.9531 56.8359 45.1172C56.8359 43.6996 56.4602 42.3637 55.7967 41.2104C57.3713 41.2127 59.4332 41.2152 62.1287 41.2162C63 44.1631 62.8578 47.3871 61.7014 50.2432C61.7014 50.2434 61.7012 50.2436 61.7012 50.2437C59.7359 55.0988 55.0963 58.4424 49.8807 58.7613C49.0906 58.8098 36.442 58.7799 27.5391 58.7891C20.0004 58.7891 13.8672 52.6559 13.8672 45.1172ZM33.8344 49.0234H27.5391C25.3852 49.0234 23.6328 47.2711 23.6328 45.1172C23.6328 42.9633 25.3852 41.2109 27.5391 41.2109H33.8373C33.2514 43.7684 33.2443 46.4379 33.8344 49.0234ZM47.0703 45.1172C47.0703 43.3096 48.2836 41.7682 49.9988 41.3355C51.7154 41.7705 52.9297 43.3119 52.9297 45.1172C52.9297 46.9248 51.7164 48.4664 50.0012 48.899C48.2846 48.4639 47.0703 46.9225 47.0703 45.1172ZM78.3203 93.1641C78.3203 94.7795 77.0062 96.0938 75.3906 96.0938H24.6094C22.9939 96.0938 21.6797 94.7795 21.6797 93.1641V61.6898C23.5133 62.34 25.4854 62.6953 27.5391 62.6953C32.4191 62.6941 67.4273 62.693 72.4609 62.6953C74.5146 62.6953 76.4867 62.34 78.3203 61.6898V93.1641ZM72.4619 58.7891C67.1209 58.7867 63.098 58.7869 60.0551 58.7877C62.0066 57.2146 63.6305 55.2248 64.7723 52.9297H72.4609C76.7688 52.9297 80.2734 49.425 80.2734 45.1172C80.2734 40.8094 76.7688 37.3047 72.4584 37.3047C49.6326 37.333 50.7049 37.2273 49.6494 37.4209C45.8896 38.0592 43.1641 41.2904 43.1641 45.1172C43.1641 46.533 43.5389 47.8674 44.2008 49.0195C42.6246 49.0174 40.5621 49.0166 37.8697 49.0209C35.3338 40.523 41.5604 31.4453 50.9766 31.4453H72.4609C79.9996 31.4453 86.1328 37.5785 86.1328 45.1172C86.1328 52.6559 79.9996 58.7891 72.4619 58.7891ZM66.1576 41.2162C68.0256 41.2154 70.1162 41.2139 72.4609 41.2109C74.6148 41.2109 76.3672 42.9633 76.3672 45.1172C76.3672 47.2711 74.6148 49.0234 72.4609 49.0234H66.1566C66.7342 46.4613 66.7346 43.7785 66.1576 41.2162Z" fill="#151515"/>
</svg>
