<svg width="100" height="100" viewBox="0 0 100 100" fill="none" xmlns="http://www.w3.org/2000/svg">
<path d="M57.3172 16.884C41.5339 16.884 28.6664 29.6187 28.4287 45.3631H29.3865C32.5028 45.3631 35.0292 47.8894 35.0292 51.0058V53.9254H45.2434C48.3582 53.9254 50.8831 56.4531 50.8831 59.5712V73.8791H50.3511C52.5829 74.4342 54.9162 74.7291 57.3172 74.7291C73.2481 74.7291 86.2089 61.7546 86.2089 45.8067C86.2089 29.8588 73.2483 16.884 57.3172 16.884Z" fill="#FF783E"/>
<path d="M93.3521 20.196L98.8551 14.6871C99.9338 13.6073 100.282 12.0446 99.7635 10.6087C99.2455 9.17379 97.9805 8.19451 96.4624 8.05272L95.1548 7.93065L95.0327 6.62013C94.8911 5.09946 93.9111 3.83328 92.4752 3.31571C91.0402 2.79814 89.4787 3.14755 88.4004 4.22702L82.8974 9.73608C82.3308 10.3031 81.9098 10.9614 81.6336 11.664C74.5845 6.61076 66.1601 3.88562 57.3171 3.88562C46.1307 3.88562 35.6137 8.24646 27.7037 16.1647C19.7943 24.0825 15.4385 34.6094 15.4385 45.8066C15.4385 47.7319 15.5704 49.6684 15.8301 51.5621C15.8366 51.6084 15.8446 51.6541 15.854 51.6992V51.9727H7.59281C3.40598 51.9725 0 55.3812 0 59.5711V73.879C0 74.9577 0.874395 75.8321 1.95308 75.8321H2.99408V89.3236C2.99408 93.512 6.40143 96.9198 10.5896 96.9198H42.2466C46.4347 96.9198 49.8421 93.5122 49.8421 89.3236V87.0608C52.2987 87.5035 54.8043 87.7274 57.3169 87.7274C68.5034 87.7274 79.0204 83.3665 86.9304 75.4481C94.8398 67.5303 99.1955 57.0034 99.1955 45.8062C99.1955 36.9542 96.4731 28.5212 91.425 21.4649C92.1386 21.1835 92.7933 20.7554 93.3521 20.196ZM85.6609 12.4966L91.1457 7.00684L91.4158 9.9058C91.5029 10.8411 92.2437 11.5819 93.1789 11.6692L96.0776 11.9405L90.5887 17.4353C90.2551 17.7691 89.8119 17.9529 89.3409 17.9529C88.9752 17.9529 88.6264 17.8422 88.3327 17.6365C87.8784 17.1365 87.411 16.6457 86.9306 16.1647C86.4501 15.6836 85.9599 15.216 85.4607 14.7614C84.9792 14.0711 85.046 13.112 85.6609 12.4966ZM57.3169 7.79179C67.0734 7.79179 75.9824 11.4946 82.715 17.5703C82.7226 17.5787 82.7301 17.5869 82.7377 17.5951L68.5608 31.787C65.4804 29.3068 61.5686 27.8208 57.3167 27.8208C47.4087 27.8208 39.3482 35.8892 39.3482 45.8064C39.3482 47.9169 39.7204 50.0057 40.438 51.9723H36.9818V51.0057C36.9818 46.8173 33.5745 43.4098 29.3861 43.4098H23.4495C21.9464 43.4098 20.5437 43.8486 19.3631 44.6051C19.9994 24.1975 36.7805 7.79179 57.3169 7.79179ZM52.8245 59.1499C52.6051 55.155 49.2888 51.9725 45.2434 51.9725H44.6768C43.744 50.0608 43.2545 47.9483 43.2545 45.8066C43.2545 38.0431 49.563 31.7272 57.3169 31.7272C60.4921 31.7272 63.4246 32.7862 65.7812 34.5699L56.5484 43.8127L56.6265 42.9147C56.7201 41.8401 55.9246 40.8932 54.85 40.7997C53.7754 40.7057 52.8284 41.5016 52.735 42.5762L52.192 48.82C52.142 49.3948 52.3489 49.9624 52.7569 50.3704C53.1246 50.7381 53.6221 50.9422 54.1377 50.9422C54.1942 50.9422 54.2506 50.9397 54.3074 50.9348L60.5446 50.3915C61.6192 50.2979 62.4143 49.3509 62.3207 48.2763C62.2272 47.2017 61.2815 46.4064 60.2053 46.4999L59.3065 46.5783L68.5413 37.3337C70.3221 39.6927 71.3793 42.6283 71.3793 45.8066C71.3793 53.5701 65.0709 59.886 57.3169 59.886C55.773 59.886 54.2662 59.6387 52.8245 59.1499ZM33.076 51.9725H19.7603V51.0059C19.7603 48.9714 21.4156 47.3161 23.4499 47.3161H29.3865C31.421 47.3161 33.076 48.9714 33.076 51.0059V51.9725ZM3.90617 59.5711C3.90617 57.535 5.56004 55.8784 7.59281 55.8784H45.2434C47.2761 55.8784 48.93 57.5349 48.93 59.5711V71.926H32.96V69.292C32.96 68.2133 32.0856 67.3389 31.007 67.3389H21.7798C20.7011 67.3389 19.8267 68.2133 19.8267 69.292V71.926H3.90617V59.5711ZM29.0539 71.2451V78.516H23.7329V71.2451H29.0539ZM45.9359 89.3236C45.9359 91.3582 44.2809 93.0136 42.2466 93.0136H10.5896C8.55529 93.0136 6.90024 91.3583 6.90024 89.3236V75.8321H19.8269V80.4691C19.8269 81.5478 20.7013 82.4222 21.78 82.4222H31.0071C32.0858 82.4222 32.9602 81.5478 32.9602 80.4691V75.8321H45.9361L45.9359 89.3236ZM57.3169 83.8212C54.7994 83.8212 52.2909 83.5738 49.8421 83.0851V75.8321H50.8831C51.9618 75.8321 52.8362 74.9577 52.8362 73.879V63.2269C54.291 63.6025 55.7902 63.7921 57.3169 63.7921C67.2249 63.7921 75.2855 55.7238 75.2855 45.8066C75.2855 41.5499 73.8006 37.6339 71.3219 34.5502L85.4986 20.3585C85.506 20.3653 85.5134 20.3722 85.521 20.379C91.5902 27.1195 95.2894 36.0386 95.2894 45.8064C95.2894 66.7679 78.255 83.8212 57.3169 83.8212Z" fill="#151515"/>
</svg>
