<svg width="147" height="148" viewBox="0 0 147 148" fill="none" xmlns="http://www.w3.org/2000/svg">
<g clip-path="url(#clip0_281_16519)">
<mask id="path-1-inside-1_281_16519" fill="white">
<path d="M-7.88148e-06 0.499222C-5.79118e-06 19.9926 7.74372 38.6876 21.5276 52.4716C35.3116 66.2555 54.0066 73.9992 73.5 73.9992C92.9934 73.9992 111.688 66.2555 125.472 52.4716C139.256 38.6876 147 19.9926 147 0.499214L73.5 0.499214L-7.88148e-06 0.499222Z"/>
</mask>
<path d="M-7.88148e-06 0.499222C-5.79118e-06 19.9926 7.74372 38.6876 21.5276 52.4716C35.3116 66.2555 54.0066 73.9992 73.5 73.9992C92.9934 73.9992 111.688 66.2555 125.472 52.4716C139.256 38.6876 147 19.9926 147 0.499214L73.5 0.499214L-7.88148e-06 0.499222Z" fill="#FF783E" stroke="#151515" stroke-width="3.02765" mask="url(#path-1-inside-1_281_16519)"/>
<mask id="path-2-inside-2_281_16519" fill="white">
<path d="M146.999 147.499C146.999 128.006 139.255 109.311 125.471 95.5268C111.687 81.7428 92.9924 73.9991 73.499 73.9991C54.0056 73.9991 35.3106 81.7428 21.5267 95.5268C7.74276 109.311 -0.000973619 128.006 -0.000976562 147.499L73.499 147.499H146.999Z"/>
</mask>
<path d="M146.999 147.499C146.999 128.006 139.255 109.311 125.471 95.5268C111.687 81.7428 92.9924 73.9991 73.499 73.9991C54.0056 73.9991 35.3106 81.7428 21.5267 95.5268C7.74276 109.311 -0.000973619 128.006 -0.000976562 147.499L73.499 147.499H146.999Z" fill="white" stroke="#151515" stroke-width="3.02765" mask="url(#path-2-inside-2_281_16519)"/>
</g>
<defs>
<clipPath id="clip0_281_16519">
<rect width="147" height="147" fill="white" transform="translate(0 0.5)"/>
</clipPath>
</defs>
</svg>
