<svg width="206" height="40" viewBox="0 0 206 40" fill="none" xmlns="http://www.w3.org/2000/svg">
<path d="M0 10C0 8.34314 1.34315 7 3 7H22.8C24.4569 7 25.8 8.34315 25.8 10V37C25.8 38.6569 24.4569 40 22.8 40H3C1.34315 40 0 38.6569 0 37V10Z" fill="#FF783E"/>
<g filter="url(#filter0_b_836_1105)">
<path d="M38.6288 1.37128C40.4571 3.19968 40.4571 6.16409 38.6288 7.99248L35.3309 11.2903L21.3374 25.2838C20.5874 26.0338 19.6476 26.5659 18.6186 26.8232L13.2555 28.164C12.3982 28.3783 11.6218 27.6018 11.8361 26.7446L13.1768 21.3815C13.4341 20.3524 13.9662 19.4126 14.7162 18.6626L28.7097 4.66911L32.0075 1.37128C33.8359 -0.457114 36.8004 -0.457114 38.6288 1.37128Z" fill="#DC9A7E" fill-opacity="0.3"/>
</g>
<g filter="url(#filter1_b_836_1105)">
<path fill-rule="evenodd" clip-rule="evenodd" d="M38.558 7.92177C40.3474 6.13243 40.3474 3.23133 38.558 1.44199C36.7687 -0.347351 33.8676 -0.347351 32.0783 1.44199L14.7869 18.7333C14.0497 19.4705 13.5267 20.3943 13.2739 21.4057L11.9331 26.7688C11.7371 27.5528 12.4472 28.263 13.2312 28.067L18.5943 26.7262C19.6058 26.4733 20.5295 25.9503 21.2667 25.2131L38.558 7.92177ZM38.6288 7.99248C40.4571 6.16409 40.4571 3.19968 38.6288 1.37128C36.8004 -0.457114 33.8359 -0.457114 32.0075 1.37128L14.7162 18.6626C13.9662 19.4126 13.4341 20.3524 13.1768 21.3815L11.8361 26.7446C11.6218 27.6018 12.3982 28.3783 13.2555 28.164L18.6186 26.8232C19.6476 26.5659 20.5874 26.0338 21.3374 25.2838L38.6288 7.99248Z" fill="#FF783E" fill-opacity="0.69"/>
<path fill-rule="evenodd" clip-rule="evenodd" d="M38.558 7.92177C40.3474 6.13243 40.3474 3.23133 38.558 1.44199C36.7687 -0.347351 33.8676 -0.347351 32.0783 1.44199L14.7869 18.7333C14.0497 19.4705 13.5267 20.3943 13.2739 21.4057L11.9331 26.7688C11.7371 27.5528 12.4472 28.263 13.2312 28.067L18.5943 26.7262C19.6058 26.4733 20.5295 25.9503 21.2667 25.2131L38.558 7.92177ZM38.6288 7.99248C40.4571 6.16409 40.4571 3.19968 38.6288 1.37128C36.8004 -0.457114 33.8359 -0.457114 32.0075 1.37128L14.7162 18.6626C13.9662 19.4126 13.4341 20.3524 13.1768 21.3815L11.8361 26.7446C11.6218 27.6018 12.3982 28.3783 13.2555 28.164L18.6186 26.8232C19.6476 26.5659 20.5874 26.0338 21.3374 25.2838L38.6288 7.99248Z" fill="url(#paint0_radial_836_1105)"/>
</g>
<path d="M13.7066 27.0121C13.2638 27.1268 12.8606 26.7236 12.9753 26.2808L13.4898 24.2947C13.6062 23.8454 14.1668 23.6927 14.4949 24.0209L15.9665 25.4924C16.2946 25.8206 16.142 26.3811 15.6927 26.4975L13.7066 27.0121Z" fill="white"/>
<path d="M72.9043 8.62238V31H69.2986L58.7544 15.7574H58.5687V31H54.5149V8.62238H58.1425L68.6757 23.8759H68.8724V8.62238H72.9043ZM84.4674 31.3278C82.8284 31.3278 81.4079 30.9672 80.206 30.2461C79.0041 29.5249 78.0717 28.516 77.4088 27.2194C76.7532 25.9228 76.4254 24.4076 76.4254 22.674C76.4254 20.9403 76.7532 19.4215 77.4088 18.1176C78.0717 16.8137 79.0041 15.8011 80.206 15.08C81.4079 14.3588 82.8284 13.9983 84.4674 13.9983C86.1064 13.9983 87.5268 14.3588 88.7287 15.08C89.9307 15.8011 90.8594 16.8137 91.515 18.1176C92.1779 19.4215 92.5093 20.9403 92.5093 22.674C92.5093 24.4076 92.1779 25.9228 91.515 27.2194C90.8594 28.516 89.9307 29.5249 88.7287 30.2461C87.5268 30.9672 86.1064 31.3278 84.4674 31.3278ZM84.4892 28.1591C85.3779 28.1591 86.1209 27.9151 86.7183 27.427C87.3156 26.9317 87.7599 26.2688 88.0513 25.4384C88.35 24.608 88.4993 23.6828 88.4993 22.663C88.4993 21.6359 88.35 20.7072 88.0513 19.8767C87.7599 19.039 87.3156 18.3725 86.7183 17.8772C86.1209 17.3818 85.3779 17.1342 84.4892 17.1342C83.5787 17.1342 82.8211 17.3818 82.2165 17.8772C81.6192 18.3725 81.1712 19.039 80.8725 19.8767C80.5812 20.7072 80.4355 21.6359 80.4355 22.663C80.4355 23.6828 80.5812 24.608 80.8725 25.4384C81.1712 26.2688 81.6192 26.9317 82.2165 27.427C82.8211 27.9151 83.5787 28.1591 84.4892 28.1591ZM104.247 14.2168V17.2762H94.599V14.2168H104.247ZM96.981 10.1958H100.936V25.9519C100.936 26.4837 101.017 26.8916 101.177 27.1757C101.344 27.4525 101.563 27.6419 101.832 27.7439C102.102 27.8459 102.401 27.8969 102.728 27.8969C102.976 27.8969 103.202 27.8786 103.406 27.8422C103.617 27.8058 103.777 27.773 103.887 27.7439L104.553 30.8361C104.342 30.9089 104.04 30.9891 103.646 31.0765C103.26 31.1639 102.787 31.2149 102.226 31.2295C101.235 31.2586 100.343 31.1093 99.5488 30.7815C98.7548 30.4464 98.1247 29.9292 97.6585 29.2299C97.1996 28.5306 96.9738 27.6565 96.981 26.6075V10.1958ZM114.805 31.3278C113.122 31.3278 111.669 30.9781 110.445 30.2788C109.229 29.5723 108.293 28.5743 107.637 27.285C106.982 25.9883 106.654 24.4623 106.654 22.7067C106.654 20.9803 106.982 19.4652 107.637 18.1613C108.3 16.8501 109.225 15.8303 110.413 15.1018C111.6 14.3661 112.995 13.9983 114.597 13.9983C115.632 13.9983 116.608 14.1658 117.526 14.5009C118.451 14.8287 119.267 15.3386 119.973 16.0306C120.687 16.7226 121.248 17.604 121.656 18.6748C122.064 19.7383 122.268 21.0058 122.268 22.4773V23.6901H108.511V21.024H118.476C118.469 20.2665 118.305 19.5927 117.985 19.0026C117.664 18.4053 117.216 17.9355 116.641 17.5931C116.072 17.2507 115.41 17.0795 114.652 17.0795C113.843 17.0795 113.133 17.2762 112.521 17.6696C111.909 18.0557 111.432 18.5656 111.09 19.1993C110.755 19.8258 110.584 20.5141 110.576 21.2644V23.5918C110.576 24.5679 110.755 25.4056 111.112 26.1049C111.469 26.7969 111.968 27.3287 112.609 27.7002C113.25 28.0644 114 28.2465 114.86 28.2465C115.435 28.2465 115.956 28.1664 116.422 28.0061C116.888 27.8386 117.293 27.5946 117.635 27.274C117.977 26.9535 118.236 26.5565 118.411 26.083L122.104 26.4983C121.871 27.4744 121.427 28.3266 120.771 29.0551C120.123 29.7762 119.292 30.3371 118.28 30.7378C117.267 31.1311 116.109 31.3278 114.805 31.3278ZM134.115 14.2168V17.2762H124.194V14.2168H134.115ZM126.674 31V12.6324C126.674 11.5033 126.907 10.5637 127.373 9.81337C127.847 9.06308 128.481 8.50218 129.275 8.13068C130.069 7.75918 130.95 7.57342 131.919 7.57342C132.603 7.57342 133.212 7.62806 133.743 7.73732C134.275 7.84659 134.669 7.94493 134.924 8.03234L134.137 11.0918C133.969 11.0408 133.758 10.9898 133.503 10.9388C133.248 10.8805 132.964 10.8514 132.651 10.8514C131.915 10.8514 131.394 11.0299 131.088 11.3868C130.79 11.7364 130.64 12.2391 130.64 12.8947V31H126.674ZM139.671 37.2937C139.132 37.2937 138.633 37.25 138.174 37.1626C137.723 37.0825 137.362 36.9878 137.092 36.8785L138.01 33.7972C138.586 33.9647 139.099 34.0449 139.551 34.0376C140.003 34.0303 140.4 33.8883 140.742 33.6115C141.092 33.3419 141.387 32.8903 141.627 32.2566L141.966 31.3497L135.88 14.2168H140.075L143.943 26.8916H144.118L147.997 14.2168H152.204L145.484 33.0323C145.171 33.921 144.756 34.6823 144.238 35.316C143.721 35.957 143.088 36.4451 142.337 36.7802C141.594 37.1225 140.706 37.2937 139.671 37.2937ZM161.8 31.3278C160.118 31.3278 158.664 30.9781 157.441 30.2788C156.224 29.5723 155.288 28.5743 154.632 27.285C153.977 25.9883 153.649 24.4623 153.649 22.7067C153.649 20.9803 153.977 19.4652 154.632 18.1613C155.295 16.8501 156.22 15.8303 157.408 15.1018C158.595 14.3661 159.99 13.9983 161.593 13.9983C162.627 13.9983 163.603 14.1658 164.521 14.5009C165.446 14.8287 166.262 15.3386 166.968 16.0306C167.682 16.7226 168.243 17.604 168.651 18.6748C169.059 19.7383 169.263 21.0058 169.263 22.4773V23.6901H155.506V21.024H165.472C165.464 20.2665 165.3 19.5927 164.98 19.0026C164.659 18.4053 164.211 17.9355 163.636 17.5931C163.068 17.2507 162.405 17.0795 161.647 17.0795C160.839 17.0795 160.128 17.2762 159.517 17.6696C158.905 18.0557 158.428 18.5656 158.085 19.1993C157.75 19.8258 157.579 20.5141 157.572 21.2644V23.5918C157.572 24.5679 157.75 25.4056 158.107 26.1049C158.464 26.7969 158.963 27.3287 159.604 27.7002C160.245 28.0644 160.995 28.2465 161.855 28.2465C162.43 28.2465 162.951 28.1664 163.417 28.0061C163.884 27.8386 164.288 27.5946 164.63 27.274C164.973 26.9535 165.231 26.5565 165.406 26.083L169.099 26.4983C168.866 27.4744 168.422 28.3266 167.766 29.0551C167.118 29.7762 166.287 30.3371 165.275 30.7378C164.262 31.1311 163.104 31.3278 161.8 31.3278ZM186.371 31.3715C185.308 31.3715 184.346 31.1748 183.487 30.7815C182.627 30.3808 181.946 29.8017 181.443 29.0441C180.948 28.2866 180.7 27.3578 180.7 26.2579C180.7 25.3109 180.883 24.5315 181.247 23.9196C181.611 23.3077 182.103 22.8233 182.722 22.4663C183.341 22.1094 184.033 21.8399 184.798 21.6578C185.563 21.4757 186.342 21.3373 187.136 21.2426C188.141 21.126 188.957 21.0313 189.584 20.9585C190.21 20.8784 190.665 20.7509 190.95 20.576C191.234 20.4012 191.376 20.1171 191.376 19.7238V19.6473C191.376 18.693 191.106 17.9537 190.567 17.4292C190.035 16.9047 189.241 16.6425 188.185 16.6425C187.085 16.6425 186.218 16.8865 185.585 17.3746C184.958 17.8553 184.525 18.3907 184.284 18.9808L181.214 18.2815C181.578 17.2617 182.11 16.4385 182.809 15.8121C183.516 15.1783 184.328 14.7194 185.246 14.4353C186.164 14.1439 187.129 13.9983 188.141 13.9983C188.812 13.9983 189.522 14.0784 190.272 14.2386C191.03 14.3916 191.736 14.6757 192.392 15.0909C193.055 15.5061 193.597 16.0998 194.02 16.8719C194.442 17.6368 194.654 18.6311 194.654 19.8549V31H191.463V28.7054H191.332C191.121 29.1279 190.804 29.5431 190.381 29.951C189.959 30.359 189.416 30.6977 188.753 30.9672C188.09 31.2367 187.296 31.3715 186.371 31.3715ZM187.082 28.7491C187.985 28.7491 188.757 28.5707 189.398 28.2137C190.046 27.8568 190.538 27.3906 190.873 26.8151C191.215 26.2324 191.387 25.6096 191.387 24.9467V22.7832C191.27 22.8998 191.044 23.009 190.709 23.111C190.381 23.2057 190.006 23.2895 189.584 23.3623C189.161 23.4279 188.75 23.4898 188.349 23.5481C187.948 23.5991 187.613 23.6428 187.344 23.6792C186.71 23.7593 186.131 23.8941 185.606 24.0835C185.089 24.2729 184.674 24.546 184.361 24.903C184.055 25.2526 183.902 25.7188 183.902 26.3016C183.902 27.1101 184.201 27.722 184.798 28.1372C185.395 28.5452 186.156 28.7491 187.082 28.7491ZM199.005 31V14.2168H202.272V31H199.005ZM200.655 11.6272C200.087 11.6272 199.599 11.4378 199.191 11.059C198.79 10.6729 198.59 10.214 198.59 9.68225C198.59 9.14321 198.79 8.68429 199.191 8.30551C199.599 7.91943 200.087 7.7264 200.655 7.7264C201.223 7.7264 201.708 7.91943 202.108 8.30551C202.516 8.68429 202.72 9.14321 202.72 9.68225C202.72 10.214 202.516 10.6729 202.108 11.059C201.708 11.4378 201.223 11.6272 200.655 11.6272Z" fill="#151515"/>
<path d="M174.926 31.2076C174.328 31.2076 173.815 30.9964 173.385 30.5739C172.955 30.1441 172.74 29.6269 172.74 29.0223C172.74 28.425 172.955 27.9151 173.385 27.4926C173.815 27.0628 174.328 26.8479 174.926 26.8479C175.523 26.8479 176.037 27.0628 176.466 27.4926C176.896 27.9151 177.111 28.425 177.111 29.0223C177.111 29.4229 177.009 29.7908 176.805 30.1259C176.608 30.4537 176.346 30.7159 176.018 30.9126C175.691 31.1093 175.326 31.2076 174.926 31.2076Z" fill="#FF783E"/>
<defs>
<filter id="filter0_b_836_1105" x="5.80005" y="-6.00002" width="40.2" height="40.2" filterUnits="userSpaceOnUse" color-interpolation-filters="sRGB">
<feFlood flood-opacity="0" result="BackgroundImageFix"/>
<feGaussianBlur in="BackgroundImageFix" stdDeviation="3"/>
<feComposite in2="SourceAlpha" operator="in" result="effect1_backgroundBlur_836_1105"/>
<feBlend mode="normal" in="SourceGraphic" in2="effect1_backgroundBlur_836_1105" result="shape"/>
</filter>
<filter id="filter1_b_836_1105" x="-18.2" y="-30" width="88.2" height="88.2" filterUnits="userSpaceOnUse" color-interpolation-filters="sRGB">
<feFlood flood-opacity="0" result="BackgroundImageFix"/>
<feGaussianBlur in="BackgroundImageFix" stdDeviation="15"/>
<feComposite in2="SourceAlpha" operator="in" result="effect1_backgroundBlur_836_1105"/>
<feBlend mode="normal" in="SourceGraphic" in2="effect1_backgroundBlur_836_1105" result="shape"/>
</filter>
<radialGradient id="paint0_radial_836_1105" cx="0" cy="0" r="1" gradientUnits="userSpaceOnUse" gradientTransform="translate(16.0144 27.2768) rotate(-50.9773) scale(22.1463 36.2117)">
<stop stop-color="white"/>
<stop offset="1" stop-color="white" stop-opacity="0"/>
</radialGradient>
</defs>
</svg>
